<svg width="93" height="67" viewBox="0 0 93 67" fill="none" xmlns="http://www.w3.org/2000/svg">
<path d="M0 7.36352C0.258558 6.55664 0.514677 5.74729 0.753722 5C10.2033 14.5335 19.5943 24.0099 29 33.4988C19.5577 43.0174 10.1618 52.4913 0.72933 62C0.53907 61.424 0.268315 60.6047 0 59.7879C0 42.3123 0 24.8367 0 7.36352Z" fill="#EE7136"/>
<path d="M5 0.67715C6.10236 0.435581 7.02621 0.213731 7.95972 0.0387169C8.30948 -0.0278379 8.68096 0.011602 9.04037 0.011602C34.0472 0.011602 59.0517 0.014067 84.0585 0.00420699C85.3949 0.00420699 86.683 0.164432 88 0.79054C87.7467 1.07155 87.5586 1.29586 87.3535 1.50539C74.586 14.597 61.8184 27.6885 49.0484 40.7777C47.4612 42.4046 45.6497 42.407 44.0697 40.7875C31.3022 27.6984 18.5346 14.6093 5.76707 1.51771C5.55962 1.30572 5.36665 1.07894 5 0.67715Z" fill="#EE7136"/>
<path d="M5 66.1839C14.3345 56.7663 23.6039 47.4127 32.936 38C33.018 38.0786 33.2592 38.2924 33.4835 38.5233C35.6929 40.7788 37.8975 43.0417 40.1094 45.2972C43.848 49.1104 49.0362 49.1055 52.7845 45.2972C55.2134 42.8329 57.6471 40.3734 59.9723 38.0221C69.249 47.3881 78.5328 56.759 88 66.3166C86.9098 66.5598 85.9956 66.7859 85.0718 66.9603C84.7221 67.0266 84.3506 66.9898 83.9912 66.9898C58.9617 66.9898 33.9322 66.9898 8.90023 66.9922C7.57362 66.9922 6.28319 66.8596 5 66.1839Z" fill="#EE7136"/>
<path d="M92.4042 62C82.7907 52.3326 73.4063 42.8953 64 33.4332C73.4356 23.9538 82.8273 14.5214 92.3043 5C92.4944 5.78912 92.7529 6.76378 92.9577 7.7508C93.0308 8.10702 92.9869 8.48798 92.9869 8.85904C92.9869 25.2105 93.0016 41.5644 92.9626 57.9158C92.9601 59.2418 92.6115 60.5652 92.4042 62Z" fill="#EE7136"/>
</svg>
