<svg width="69" height="67" viewBox="0 0 69 67" fill="none" xmlns="http://www.w3.org/2000/svg">
<path d="M69 16.9793C68.7432 16.365 68.5454 15.719 68.222 15.1403C66.3121 11.733 63.8942 8.67667 61.2158 5.83695C59.6255 4.1529 57.8773 2.60142 56.1043 1.09661C53.6428 -0.992578 51.1774 0.248985 49.9105 1.94983C46.7203 6.23836 43.747 10.6725 41.4757 15.5174C41.1314 16.253 40.886 17.0371 40.6406 17.812C40.2601 19.0143 40.4808 20.1625 41.3102 21.0923C42.1491 22.0333 43.1173 22.866 44.0533 23.7211C44.6791 24.2924 45.3297 24.8375 46.0012 25.3547C46.3589 25.631 46.4121 25.883 46.258 26.305C44.4965 31.1107 41.7001 35.2349 37.8632 38.6777C34.8157 41.4128 31.3345 43.4516 27.4633 44.8575C26.9535 45.0423 26.632 45.0087 26.2554 44.5606C25.1692 43.2668 24.0354 42.0103 22.8845 40.7725C21.4654 39.2452 19.721 38.7598 17.7978 39.6485C15.2506 40.8247 12.7091 42.0346 10.2818 43.4274C7.76696 44.8706 5.3891 46.5415 2.95986 48.1266C1.90028 48.8174 1.15268 49.7453 0.741783 50.9458C0.427902 51.8644 0.437416 52.7531 0.983376 53.5578C1.62636 54.5025 2.27313 55.4677 3.05307 56.3004C6.62178 60.1128 10.7307 63.283 15.1593 66.0891C16.9056 67.1944 18.6481 67.1272 20.5352 66.7557C26.263 65.6298 31.5095 63.3465 36.4232 60.3294C47.7399 53.3804 56.8006 44.2619 63.3977 32.8451C65.7813 28.7153 67.5847 24.3484 68.5035 19.6603C68.5891 19.2272 68.6633 18.7903 68.7261 18.3534C68.7888 17.9165 68.8288 17.474 68.8802 17.0353C68.9182 17.0166 68.9601 16.9979 69 16.9793ZM53.4716 4.58232C53.7093 4.77649 53.8197 4.8605 53.9224 4.95385C57.6052 8.25286 60.7954 11.9607 63.6089 15.9972C64.1853 16.8243 64.2918 17.5842 64.1073 18.5252C63.3197 22.5654 61.8359 26.3573 59.8233 29.9382C53.3821 41.3942 44.3653 50.4324 32.9534 57.1574C28.4754 59.7954 23.712 61.7913 18.4883 62.5287C18.1554 62.5754 17.7293 62.4783 17.4459 62.2991C14.0978 60.195 11.0085 57.7679 8.15503 55.0532C7.15633 54.1029 6.20898 53.1003 5.20077 52.0828C5.51845 51.8382 5.75433 51.6441 6.00163 51.4686C9.96983 48.6531 14.1701 46.2204 18.5758 44.1219C19.3253 43.7653 19.6982 43.8624 20.2137 44.4561C21.5967 46.0486 23.0576 47.5777 24.4844 49.1348C25.1197 49.8293 25.8369 49.947 26.7728 49.7136C30.6212 48.7539 34.1005 47.0344 37.3153 44.8071C43.8193 40.302 48.421 34.3686 50.8083 26.8875C51.6568 24.2289 51.8204 24.7759 49.705 22.6681C48.3943 21.3611 46.9143 20.2148 45.4952 19.0143C45.1566 18.7268 45.0729 18.4878 45.305 18.0771C46.8535 15.3288 48.3182 12.5358 49.9295 9.82489C50.9891 8.04376 52.2503 6.37652 53.4716 4.58232Z" fill="#EE7136"/>
<path d="M53.4715 4.58203C52.2483 6.37436 50.9871 8.04347 49.9275 9.8246C48.3163 12.5355 46.8515 15.3285 45.3031 18.0768C45.071 18.4875 45.1547 18.7284 45.4933 19.014C46.9124 20.2145 48.3924 21.3609 49.7031 22.6678C51.8184 24.7756 51.6548 24.2286 50.8064 26.8872C48.4209 34.3683 43.8174 40.3017 37.3134 44.8068C34.0985 47.0341 30.6192 48.7537 26.7709 49.7133C25.8349 49.9467 25.1197 49.8272 24.4824 49.1345C23.0557 47.5774 21.5947 46.0502 20.2118 44.4558C19.6962 43.8621 19.3234 43.7631 18.5739 44.1216C14.1663 46.222 9.96789 48.6528 5.99969 51.4683C5.7524 51.6438 5.51651 51.838 5.19883 52.0825C6.20704 53.0982 7.15439 54.1008 8.1531 55.0529C11.0065 57.7676 14.0959 60.1966 17.4439 62.2988C17.7293 62.4781 18.1535 62.5751 18.4864 62.5285C23.7101 61.791 28.4753 59.7952 32.9514 57.1571C44.3652 50.434 53.384 41.3958 59.8233 29.9379C61.8359 26.357 63.3197 22.5651 64.1073 18.5249C64.2918 17.5839 64.1853 16.824 63.6089 15.9969C60.7954 11.9605 57.6052 8.25258 53.9243 4.95357C53.8196 4.86208 53.7093 4.77807 53.4715 4.58203Z" fill="#EE7136"/>
</svg>
